# xmcd CD database file
#
# Track frame offsets:
#	150
#	26615
#	46872
#	67105
#
# Disc length: 1143 seconds
#
# Revision: 0
# Processed by: cddbd v1.5.1PL0 Copyright (c) Steve Scherf et al.
# Submitted via: CDex 1.51
#
DISCID=2f047504
DTITLE=川村　結花 - エチュード　〜春盤〜
DYEAR=2002
DGENRE=JPop
TTITLE0=エチュード
TTITLE1=春雷
TTITLE2=夢を続ける町
TTITLE3=いつか来た道
EXTD=YEAR: 2002
EXTT0=
EXTT1=
EXTT2=
EXTT3=
PLAYORDER=
